<?xml version="1.0" encoding="utf-8"?>
<!-- Svg Vector Icons : http://www.onlinewebfonts.com/icon -->
<!DOCTYPE svg PUBLIC "-//W3C//DTD SVG 1.1//EN" "http://www.w3.org/Graphics/SVG/1.1/DTD/svg11.dtd">
<svg version="1.1" xmlns="http://www.w3.org/2000/svg" xmlns:xlink="http://www.w3.org/1999/xlink" x="0px" y="0px" viewBox="0 0 1000 1000" enable-background="new 0 0 1000 1000" xml:space="preserve">
<metadata> Svg Vector Icons : http://www.onlinewebfonts.com/icon </metadata>
<g><path d="M804.1,576.8l-6.8-2.7l5.8-4.5c42.7-33.4,67.3-83.3,67.3-136.8c0-96-78.6-174.1-175.2-174.1c-96.6,0-175.3,78.1-175.3,174.1c0,53.6,24.5,103.4,67.3,136.8l5.8,4.5l-6.8,2.7c-112.9,44.8-185.9,151.6-185.9,271.9v59.4c0,14.1,11.5,25.5,25.7,25.5h538.3c14.2,0,25.7-11.5,25.7-25.5v-59.4C990,728.4,917.1,621.7,804.1,576.8z M571.3,432.8c0-67.8,55.5-123,123.8-123c68.3,0,123.8,55.2,123.8,123c0,67.8-55.5,123-123.8,123C626.9,555.9,571.3,500.7,571.3,432.8z M938.6,882.7H451.7v-33.9c0-133.4,109.2-241.9,243.5-241.9c134.2,0,243.4,108.5,243.4,241.9V882.7z"/><path d="M349.3,442.1L224.8,566.6l40.3,29.7l138.7-138.7V236.1h-54.5V442.1z"/><path d="M75.8,493.9c-17.1-79.5-2.2-161,42-229.3c44.2-68.3,112.3-115.4,191.9-132.5c21.1-4.5,42.8-6.8,64.2-6.8c81.3,0,160.5,33.4,217.6,91.7l60.1-21.5C583.1,114.5,479.8,66.3,374,66.3c-25.6,0-51.4,2.8-76.7,8.2C202.5,94.8,121.2,151,68.5,232.7C15.7,314.3-2.2,411.5,18.2,506.3C49,649.6,161.4,759.5,305,787.1l37.7-54C210.7,720,103.9,624.8,75.8,493.9z"/></g>
</svg>